<svg width="132" height="132" viewBox="0 0 132 132" fill="none" xmlns="http://www.w3.org/2000/svg">
<g id="file-earmark-plus 1">
<path id="Vector" d="M66 53.625C67.094 53.625 68.1432 54.0596 68.9168 54.8332C69.6904 55.6068 70.125 56.656 70.125 57.75V70.125H82.5C83.594 70.125 84.6432 70.5596 85.4168 71.3332C86.1904 72.1068 86.625 73.156 86.625 74.25C86.625 75.344 86.1904 76.3932 85.4168 77.1668C84.6432 77.9404 83.594 78.375 82.5 78.375H70.125V90.75C70.125 91.844 69.6904 92.8932 68.9168 93.6668C68.1432 94.4404 67.094 94.875 66 94.875C64.906 94.875 63.8568 94.4404 63.0832 93.6668C62.3096 92.8932 61.875 91.844 61.875 90.75V78.375H49.5C48.406 78.375 47.3568 77.9404 46.5832 77.1668C45.8096 76.3932 45.375 75.344 45.375 74.25C45.375 73.156 45.8096 72.1068 46.5832 71.3332C47.3568 70.5596 48.406 70.125 49.5 70.125H61.875V57.75C61.875 56.656 62.3096 55.6068 63.0832 54.8332C63.8568 54.0596 64.906 53.625 66 53.625Z" fill="white"/>
<path id="Vector_2" d="M115.5 37.125V115.5C115.5 119.876 113.762 124.073 110.667 127.167C107.573 130.262 103.376 132 99 132H33C28.6239 132 24.4271 130.262 21.3327 127.167C18.2384 124.073 16.5 119.876 16.5 115.5V16.5C16.5 12.1239 18.2384 7.92709 21.3327 4.83274C24.4271 1.73839 28.6239 0 33 0L78.375 0L115.5 37.125ZM90.75 37.125C87.4679 37.125 84.3203 35.8212 81.9995 33.5004C79.6788 31.1797 78.375 28.0321 78.375 24.75V8.25H33C30.812 8.25 28.7135 9.11919 27.1664 10.6664C25.6192 12.2135 24.75 14.312 24.75 16.5V115.5C24.75 117.688 25.6192 119.786 27.1664 121.334C28.7135 122.881 30.812 123.75 33 123.75H99C101.188 123.75 103.286 122.881 104.834 121.334C106.381 119.786 107.25 117.688 107.25 115.5V37.125H90.75Z" fill="white"/>
</g>
</svg>
