<svg width="563" height="800" viewBox="0 0 563 800" fill="none" xmlns="http://www.w3.org/2000/svg">
<path d="M281.006 800C435.947 800 562.015 673.963 562.015 519.031C562.015 367.294 298.656 22.9117 287.44 8.33069L281.006 0L274.571 8.38512C263.371 22.9389 0 367.346 0 519.058C0.00302384 673.963 126.067 800 281.006 800Z" fill="#EFFDFF"/>
<path d="M281.006 800C287.44 800 285.009 679.933 285.009 525C285.009 374.5 292.221 22.9661 281.006 8.38512V0L274.571 8.38512C263.371 22.9389 0 367.346 0 519.058C0.00302384 673.963 126.067 800 281.006 800Z" fill="#CDDDDF"/>
<g clip-path="url(#clip0_151_2)">
<path d="M404.146 488.909H321.099V405.864C321.099 399.311 315.787 394 309.235 394H285.507H261.78C255.228 394 249.916 399.311 249.916 405.864V488.909H166.869C160.317 488.909 155.005 494.22 155.005 500.773V548.228C155.005 554.78 160.317 560.091 166.869 560.091H249.916V643.137C249.916 649.689 255.228 655 261.78 655H285.507H309.235C315.787 655 321.099 649.689 321.099 643.137V560.091H404.146C410.698 560.091 416.01 554.779 416.01 548.227V500.772C416.01 494.22 410.698 488.909 404.146 488.909Z" fill="#00A3DE"/>
<path d="M261.78 394C255.228 394 249.916 399.311 249.916 405.864V488.909H166.869C160.317 488.909 155.005 494.22 155.005 500.773V548.228C155.005 554.78 160.317 560.091 166.869 560.091H249.916V643.137C249.916 649.689 255.228 655 261.78 655H285.507V394H261.78Z" fill="#0076C5"/>
</g>
<defs>
<clipPath id="clip0_151_2">
<rect width="261.005" height="261" fill="white" transform="translate(155.005 394)"/>
</clipPath>
</defs>
</svg>
