<svg width="45" height="64" viewBox="0 0 45 64" fill="none" xmlns="http://www.w3.org/2000/svg">
<path d="M22.4805 64C34.8758 64 44.9612 53.9171 44.9612 41.5224C44.9612 29.3835 23.8925 1.83293 22.9952 0.666455L22.4805 0L21.9657 0.670809C21.0697 1.83511 0 29.3876 0 41.5246C0.000241907 53.9171 10.0854 64 22.4805 64Z" fill="white"/>
<path d="M4.48071 36.6523C4.48071 45.6 11.8765 50.3682 17.2903 54.6361C19.2007 56.1421 21.0407 57.56 22.8807 57.56C24.7207 57.56 26.5607 56.1421 28.4712 54.6361C33.885 50.3682 41.2807 45.6 41.2807 36.6523C41.2807 27.7045 31.1603 21.3589 22.8807 29.9612C14.601 21.3589 4.48071 27.7045 4.48071 36.6523Z" fill="#C4BDBD"/>
<g clip-path="url(#clip0_145_288)">
<path d="M32.3318 39.1128H25.6881V32.4691C25.6881 31.9449 25.2632 31.52 24.739 31.52H22.8409H20.9427C20.4186 31.52 19.9936 31.9449 19.9936 32.4691V39.1128H13.35C12.8258 39.1128 12.4009 39.5376 12.4009 40.0619V43.8582C12.4009 44.3824 12.8258 44.8073 13.35 44.8073H19.9936V51.451C19.9936 51.9751 20.4186 52.4001 20.9427 52.4001H22.8409H24.739C25.2632 52.4001 25.6881 51.9751 25.6881 51.451V44.8073H32.3318C32.8559 44.8073 33.2809 44.3823 33.2809 43.8582V40.0618C33.2809 39.5376 32.8559 39.1128 32.3318 39.1128Z" fill="#00A3DE"/>
<path d="M20.9427 31.52C20.4186 31.52 19.9936 31.9449 19.9936 32.4691V39.1128H13.35C12.8258 39.1128 12.4009 39.5376 12.4009 40.0619V43.8582C12.4009 44.3824 12.8258 44.8073 13.35 44.8073H19.9936V51.451C19.9936 51.9751 20.4186 52.4001 20.9427 52.4001H22.8409V31.52H20.9427Z" fill="#005C99"/>
</g>
<defs>
<clipPath id="clip0_145_288">
<rect width="20.88" height="20.88" fill="white" transform="translate(12.4009 31.52)"/>
</clipPath>
</defs>
</svg>
