<svg width="46" height="64" viewBox="0 0 46 64" fill="none" xmlns="http://www.w3.org/2000/svg">
<path d="M22.9998 64C35.3949 64 45.4801 53.9171 45.4801 41.5224C45.4801 29.3835 24.4118 1.83293 23.5146 0.666455L22.9998 0L22.4851 0.670809C21.589 1.83511 0.519775 29.3876 0.519775 41.5246C0.520017 53.9171 10.605 64 22.9998 64Z" fill="#EFFDFF"/>
<path d="M22.9998 64C23.5146 64 23.3201 54.3946 23.3201 42C23.3201 29.96 23.897 1.83729 22.9998 0.670809V0L22.4851 0.670809C21.589 1.83511 0.519775 29.3876 0.519775 41.5246C0.520017 53.9171 10.605 64 22.9998 64Z" fill="#CDDDDF"/>
<g clip-path="url(#clip0_151_2)">
<path d="M32.8508 39.1128H26.2072V32.4691C26.2072 31.9449 25.7822 31.52 25.2581 31.52H23.3599H21.4618C20.9376 31.52 20.5127 31.9449 20.5127 32.4691V39.1128H13.869C13.3449 39.1128 12.9199 39.5376 12.9199 40.0619V43.8582C12.9199 44.3824 13.3449 44.8073 13.869 44.8073H20.5127V51.451C20.5127 51.9751 20.9376 52.4001 21.4618 52.4001H23.3599H25.2581C25.7822 52.4001 26.2072 51.9751 26.2072 51.451V44.8073H32.8508C33.375 44.8073 33.7999 44.3823 33.7999 43.8582V40.0618C33.7999 39.5376 33.375 39.1128 32.8508 39.1128Z" fill="#00A3DE"/>
<path d="M21.4618 31.52C20.9376 31.52 20.5127 31.9449 20.5127 32.4691V39.1128H13.869C13.3449 39.1128 12.9199 39.5376 12.9199 40.0619V43.8582C12.9199 44.3824 13.3449 44.8073 13.869 44.8073H20.5127V51.451C20.5127 51.9751 20.9376 52.4001 21.4618 52.4001H23.3599V31.52H21.4618Z" fill="#0076C5"/>
</g>
<defs>
<clipPath id="clip0_151_2">
<rect width="20.88" height="20.88" fill="white" transform="translate(12.9199 31.52)"/>
</clipPath>
</defs>
</svg>
