<svg width="130" height="130" viewBox="0 0 130 130" fill="none" xmlns="http://www.w3.org/2000/svg">
<g id="pencil-square 3">
<path id="Vector" d="M125.954 15.7625C126.713 16.524 127.139 17.5554 127.139 18.6306C127.139 19.7059 126.713 20.7373 125.954 21.4988L117.479 29.9813L101.229 13.7313L109.704 5.24877C110.466 4.48717 111.499 4.05933 112.576 4.05933C113.653 4.05933 114.686 4.48717 115.448 5.24877L125.954 15.7544V15.7625ZM111.735 35.7175L95.485 19.4675L40.1294 74.8313C39.6822 75.2784 39.3455 75.8237 39.1462 76.4238L32.6056 96.0375C32.487 96.3951 32.4702 96.7786 32.557 97.1452C32.6438 97.5118 32.8309 97.847 33.0972 98.1134C33.3636 98.3798 33.6989 98.5668 34.0654 98.6537C34.432 98.7405 34.8156 98.7236 35.1731 98.605L54.7869 92.0644C55.3862 91.8675 55.9314 91.5336 56.3794 91.0894L111.735 35.7175Z" fill="white"/>
<path id="Vector_2" fill-rule="evenodd" clip-rule="evenodd" d="M8.125 109.688C8.125 112.92 9.40904 116.02 11.6946 118.305C13.9802 120.591 17.0802 121.875 20.3125 121.875H109.688C112.92 121.875 116.02 120.591 118.305 118.305C120.591 116.02 121.875 112.92 121.875 109.688V60.9375C121.875 59.8601 121.447 58.8267 120.685 58.0649C119.923 57.303 118.89 56.875 117.812 56.875C116.735 56.875 115.702 57.303 114.94 58.0649C114.178 58.8267 113.75 59.8601 113.75 60.9375V109.688C113.75 110.765 113.322 111.798 112.56 112.56C111.798 113.322 110.765 113.75 109.688 113.75H20.3125C19.2351 113.75 18.2017 113.322 17.4399 112.56C16.678 111.798 16.25 110.765 16.25 109.688V20.3125C16.25 19.2351 16.678 18.2017 17.4399 17.4399C18.2017 16.678 19.2351 16.25 20.3125 16.25H73.125C74.2024 16.25 75.2358 15.822 75.9976 15.0601C76.7595 14.2983 77.1875 13.2649 77.1875 12.1875C77.1875 11.1101 76.7595 10.0767 75.9976 9.31488C75.2358 8.55301 74.2024 8.125 73.125 8.125H20.3125C17.0802 8.125 13.9802 9.40904 11.6946 11.6946C9.40904 13.9802 8.125 17.0802 8.125 20.3125V109.688Z" fill="white"/>
</g>
</svg>
