<svg width="22" height="22" viewBox="0 0 22 22" fill="none" xmlns="http://www.w3.org/2000/svg">
<g id="plus-svgrepo-com 1" clip-path="url(#clip0_116_96)">
<path id="Vector" d="M20.8511 8.11275H14.2074V1.46912C14.2074 0.944879 13.7825 0.52002 13.2583 0.52002H11.3602H9.462C8.93784 0.52002 8.5129 0.944879 8.5129 1.46912V8.11275H1.86927C1.34511 8.11275 0.920166 8.53761 0.920166 9.06186V12.8582C0.920166 13.3824 1.34511 13.8073 1.86927 13.8073H8.5129V20.451C8.5129 20.9751 8.93784 21.4001 9.462 21.4001H11.3602H13.2583C13.7825 21.4001 14.2074 20.9751 14.2074 20.451V13.8073H20.8511C21.3752 13.8073 21.8002 13.3823 21.8002 12.8582V9.06181C21.8002 8.53761 21.3752 8.11275 20.8511 8.11275Z" fill="#00A3DE"/>
<path id="Vector_2" d="M9.462 0.52002C8.93784 0.52002 8.5129 0.944879 8.5129 1.46912V8.11275H1.86927C1.34511 8.11275 0.920166 8.53761 0.920166 9.06186V12.8582C0.920166 13.3824 1.34511 13.8073 1.86927 13.8073H8.5129V20.451C8.5129 20.9751 8.93784 21.4001 9.462 21.4001H11.3602V0.52002H9.462Z" fill="#005C99"/>
</g>
<defs>
<clipPath id="clip0_116_96">
<rect width="20.88" height="20.88" fill="white" transform="translate(0.920166 0.52002)"/>
</clipPath>
</defs>
</svg>
